<svg xmlns="http://www.w3.org/2000/svg" viewBox="180 20 1130 1010">
  <defs>
    <linearGradient id="steel" x1="0" y1="0" x2="1" y2="1">
      <stop offset="0" stop-color="#c3c8d0"/><stop offset=".45" stop-color="#8d939d"/><stop offset="1" stop-color="#5f646d"/>
    </linearGradient>
    <linearGradient id="blue" x1="0" y1="1" x2="1" y2="0">
      <stop offset="0" stop-color="#1f4c9a"/><stop offset=".6" stop-color="#3a6fc4"/><stop offset="1" stop-color="#6d9ae0"/>
    </linearGradient>
    <linearGradient id="boxFront" x1="0" y1="0" x2="0" y2="1"><stop offset="0" stop-color="#cfa979"/><stop offset="1" stop-color="#b38c5d"/></linearGradient>
    <linearGradient id="boxSide" x1="0" y1="0" x2="1" y2="1"><stop offset="0" stop-color="#b48e60"/><stop offset="1" stop-color="#94724a"/></linearGradient>
    <filter id="shadow" x="-10%" y="-10%" width="130%" height="130%"><feDropShadow dx="10" dy="16" stdDeviation="10" flood-color="#000" flood-opacity=".28"/></filter>
  </defs>
  <g fill="none" stroke-linejoin="miter" stroke-miterlimit="10" filter="url(#shadow)">
    <g stroke="#474b53" stroke-width="62" transform="translate(9 12)">
      <path d="M640 160 L715 85 L1015 335 L885 455"/>
      <path d="M335 405 L268 475 L268 765 L690 980 L945 735 L1195 860 L1100 535 L945 735"/>
    </g>
    <g stroke="url(#steel)" stroke-width="56">
      <path d="M640 160 L715 85 L1015 335 L885 455"/>
      <path d="M335 405 L268 475 L268 765 L690 980 L945 735 L1195 860 L1100 535 L945 735"/>
    </g>
  </g>
  <g filter="url(#shadow)">
    <path d="M375 292 L560 205 L815 268 L612 352 Z" fill="#dcbb8e"/>
    <path d="M375 292 L612 352 L612 652 L375 528 Z" fill="url(#boxFront)"/>
    <path d="M612 352 L815 268 L815 525 L612 652 Z" fill="url(#boxSide)"/>
    <path d="M468 248 L708 312 L708 336 L482 262 Z" fill="#a98256" opacity=".75"/>
    <path d="M695 318 L728 304 L728 420 L695 435 Z" fill="#a98256" opacity=".7"/>
  </g>
  <g filter="url(#shadow)">
    <path d="M250 548 L610 712 L835 478 L900 548 L1150 312" fill="none" stroke="#163a78" stroke-width="80" stroke-linejoin="miter" transform="translate(7 10)"/>
    <path d="M250 548 L610 712 L835 478 L900 548 L1150 312" fill="none" stroke="url(#blue)" stroke-width="74" stroke-linejoin="miter"/>
    <path d="M1052 242 L1278 172 L1228 405 Z" fill="#163a78" transform="translate(7 10)"/>
    <path d="M1052 242 L1278 172 L1228 405 Z" fill="url(#blue)"/>
  </g>
</svg>
